<svg width="494" height="4827" viewBox="0 0 494 4827" fill="none" xmlns="http://www.w3.org/2000/svg">
<rect y="4" width="491" height="5020" fill="#F3F3F3"/>
<g filter="url(#filter0_f_159_85)">
<ellipse cx="79.8841" cy="197.939" rx="91.5" ry="91.4421" fill="#ED6010"/>
</g>
<g filter="url(#filter1_f_159_85)">
<ellipse cx="391.114" cy="103.691" rx="99.4148" ry="99.8978" fill="#A7CD3A"/>
</g>
<g filter="url(#filter2_f_159_85)">
<ellipse cx="17.1093" cy="740.974" rx="99.4148" ry="99.8978" fill="#A7CD3A"/>
</g>
<g filter="url(#filter3_f_159_85)">
<ellipse cx="6.52124" cy="435.223" rx="86.1372" ry="86.5557" fill="#9DC7F9"/>
</g>
<g filter="url(#filter4_f_159_85)">
<ellipse rx="80.6699" ry="81.0619" transform="matrix(1 0 0 -1 444.671 1247.3)" fill="#ED6010"/>
</g>
<g filter="url(#filter5_f_159_85)">
<ellipse rx="86.1372" ry="86.5557" transform="matrix(1 0 0 -1 -20.0457 1284.19)" fill="#9DC7F9"/>
</g>
<g filter="url(#filter6_f_159_85)">
<ellipse cx="399.482" cy="806.34" rx="86.1372" ry="86.5557" fill="#9DC7F9"/>
</g>
<g filter="url(#filter7_f_159_85)">
<ellipse cx="392.453" cy="362.686" rx="76.2068" ry="76.5771" fill="#FFC500"/>
</g>
<g filter="url(#filter8_f_159_85)">
<ellipse cx="14.8841" cy="126.091" rx="76.5" ry="76.8717" fill="#F9DB26"/>
</g>
<g filter="url(#filter9_f_159_85)">
<ellipse cx="439.873" cy="1026.99" rx="50.6558" ry="50.9019" fill="#A7CD3A"/>
</g>
<g filter="url(#filter10_f_159_85)">
<ellipse cx="8.40636" cy="833.36" rx="67.727" ry="68.0561" fill="#F9DB26"/>
</g>
<g filter="url(#filter11_f_159_85)">
<ellipse rx="91.5" ry="91.4421" transform="matrix(-1 0 0 1 345.841 1776.78)" fill="#ED6010"/>
</g>
<g filter="url(#filter12_f_159_85)">
<ellipse rx="99.4148" ry="99.8978" transform="matrix(-1 0 0 1 34.6108 1682.53)" fill="#A7CD3A"/>
</g>
<g filter="url(#filter13_f_159_85)">
<ellipse rx="99.4148" ry="99.8978" transform="matrix(-1 0 0 1 408.616 2319.81)" fill="#A7CD3A"/>
</g>
<g filter="url(#filter14_f_159_85)">
<ellipse rx="86.1372" ry="86.5557" transform="matrix(-1 0 0 1 419.204 2014.06)" fill="#9DC7F9"/>
</g>
<g filter="url(#filter15_f_159_85)">
<ellipse cx="-18.946" cy="2826.14" rx="80.6699" ry="81.0619" transform="rotate(-180 -18.946 2826.14)" fill="#ED6010"/>
</g>
<g filter="url(#filter16_f_159_85)">
<ellipse cx="445.771" cy="2863.03" rx="86.1372" ry="86.5557" transform="rotate(-180 445.771 2863.03)" fill="#9DC7F9"/>
</g>
<g filter="url(#filter17_f_159_85)">
<ellipse rx="76.2068" ry="76.5771" transform="matrix(-1 0 0 1 27.591 2133.5)" fill="#FFC500"/>
</g>
<g filter="url(#filter18_f_159_85)">
<ellipse rx="76.5" ry="76.8717" transform="matrix(-1 0 0 1 410.841 1704.93)" fill="#F9DB26"/>
</g>
<g filter="url(#filter19_f_159_85)">
<ellipse cx="382.114" cy="3183.79" rx="99.4148" ry="99.8978" fill="#A7CD3A"/>
</g>
<g filter="url(#filter20_f_159_85)">
<ellipse cx="5.88408" cy="3206.19" rx="76.5" ry="76.8717" fill="#F9DB26"/>
</g>
<g filter="url(#filter21_f_159_85)">
<ellipse rx="50.6558" ry="50.9019" transform="matrix(-1 0 0 1 -14.1482 2605.83)" fill="#A7CD3A"/>
</g>
<g filter="url(#filter22_f_159_85)">
<ellipse rx="67.727" ry="68.0561" transform="matrix(-1 0 0 1 417.319 2412.2)" fill="#F9DB26"/>
</g>
<mask id="path-25-inside-1_159_85" fill="white">
<path d="M449.627 268.122C449.627 284.205 436.589 297.243 420.506 297.243C404.422 297.243 391.384 284.205 391.384 268.122C391.384 252.038 404.422 239 420.506 239C436.589 239 449.627 252.038 449.627 268.122ZM405.945 268.122C405.945 276.163 412.464 282.682 420.506 282.682C428.547 282.682 435.066 276.163 435.066 268.122C435.066 260.08 428.547 253.561 420.506 253.561C412.464 253.561 405.945 260.08 405.945 268.122Z"/>
</mask>
<path d="M449.627 268.122C449.627 284.205 436.589 297.243 420.506 297.243C404.422 297.243 391.384 284.205 391.384 268.122C391.384 252.038 404.422 239 420.506 239C436.589 239 449.627 252.038 449.627 268.122ZM405.945 268.122C405.945 276.163 412.464 282.682 420.506 282.682C428.547 282.682 435.066 276.163 435.066 268.122C435.066 260.08 428.547 253.561 420.506 253.561C412.464 253.561 405.945 260.08 405.945 268.122Z" stroke="#ED6010" stroke-width="4.46306" mask="url(#path-25-inside-1_159_85)"/>
<mask id="path-26-inside-2_159_85" fill="white">
<path d="M392.26 124.583C386.028 130.815 377.575 134.316 368.761 134.316C359.947 134.316 351.493 130.815 345.261 124.583C339.029 118.35 335.527 109.897 335.527 101.083C335.527 92.269 339.029 83.816 345.261 77.5835L357.011 89.3333C353.895 92.4495 352.144 96.676 352.144 101.083C352.144 105.49 353.895 109.717 357.011 112.833C360.127 115.949 364.354 117.7 368.761 117.7C373.168 117.7 377.394 115.949 380.51 112.833L392.26 124.583Z"/>
</mask>
<path d="M392.26 124.583C386.028 130.815 377.575 134.316 368.761 134.316C359.947 134.316 351.493 130.815 345.261 124.583C339.029 118.35 335.527 109.897 335.527 101.083C335.527 92.269 339.029 83.816 345.261 77.5835L357.011 89.3333C353.895 92.4495 352.144 96.676 352.144 101.083C352.144 105.49 353.895 109.717 357.011 112.833C360.127 115.949 364.354 117.7 368.761 117.7C373.168 117.7 377.394 115.949 380.51 112.833L392.26 124.583Z" stroke="#4A3978" stroke-width="4.46306" mask="url(#path-26-inside-2_159_85)"/>
<mask id="path-27-inside-3_159_85" fill="white">
<path d="M53.5889 368.141C53.5889 377.393 46.0887 384.893 36.8367 384.893C27.5847 384.893 20.0845 377.393 20.0845 368.141C20.0845 358.889 27.5847 351.389 36.8367 351.389C46.0887 351.389 53.5889 358.889 53.5889 368.141ZM28.4606 368.141C28.4606 372.767 32.2107 376.517 36.8367 376.517C41.4627 376.517 45.2128 372.767 45.2128 368.141C45.2128 363.515 41.4627 359.765 36.8367 359.765C32.2107 359.765 28.4606 363.515 28.4606 368.141Z"/>
</mask>
<path d="M53.5889 368.141C53.5889 377.393 46.0887 384.893 36.8367 384.893C27.5847 384.893 20.0845 377.393 20.0845 368.141C20.0845 358.889 27.5847 351.389 36.8367 351.389C46.0887 351.389 53.5889 358.889 53.5889 368.141ZM28.4606 368.141C28.4606 372.767 32.2107 376.517 36.8367 376.517C41.4627 376.517 45.2128 372.767 45.2128 368.141C45.2128 363.515 41.4627 359.765 36.8367 359.765C32.2107 359.765 28.4606 363.515 28.4606 368.141Z" stroke="#005CBA" stroke-width="4.46306" mask="url(#path-27-inside-3_159_85)"/>
<path d="M51.1097 337.092C54.8257 339.237 58.0827 342.094 60.6948 345.498C63.3069 348.902 65.223 352.787 66.3335 356.932C67.4441 361.076 67.7274 365.399 67.1673 369.653C66.6073 373.908 65.2148 378.01 63.0693 381.726C60.9239 385.442 58.0676 388.699 54.6634 391.311C51.2593 393.923 47.374 395.839 43.2293 396.949C39.0847 398.06 34.7619 398.343 30.5077 397.783C26.2536 397.223 22.1514 395.831 18.4355 393.685" stroke="#4A3978" stroke-width="14.2818"/>
<path d="M373.979 101.169C373.979 105.729 370.233 109.426 365.611 109.426C360.989 109.426 357.243 105.729 357.243 101.169C357.243 96.6092 360.989 92.9126 365.611 92.9126C370.233 92.9126 373.979 96.6092 373.979 101.169ZM361.427 101.169C361.427 103.449 363.3 105.298 365.611 105.298C367.922 105.298 369.795 103.449 369.795 101.169C369.795 98.8893 367.922 97.0409 365.611 97.0409C363.3 97.0409 361.427 98.8893 361.427 101.169Z" fill="#FFC500"/>
<path d="M399.121 450.257C399.121 454.817 395.374 458.513 390.752 458.513C386.131 458.513 382.384 454.817 382.384 450.257C382.384 445.697 386.131 442 390.752 442C395.374 442 399.121 445.697 399.121 450.257ZM386.568 450.257C386.568 452.537 388.442 454.385 390.752 454.385C393.063 454.385 394.936 452.537 394.936 450.257C394.936 447.977 393.063 446.128 390.752 446.128C388.442 446.128 386.568 447.977 386.568 450.257Z" fill="#005CBA"/>
<path d="M-3.28292 105.003C-5.46968 101.215 -6.40124 96.8324 -5.94408 92.4828C-5.48692 88.1333 -3.66452 84.0401 -0.738072 80.7899C2.18838 77.5398 6.06864 75.2995 10.3466 74.3902C14.6245 73.4809 19.0805 73.9492 23.0759 75.7281L18.8642 85.1879C16.8665 84.2984 14.6385 84.0642 12.4995 84.5189C10.3605 84.9736 8.4204 86.0937 6.95717 87.7188C5.49395 89.3438 4.58275 91.3904 4.35417 93.5652C4.12559 95.74 4.59137 97.9313 5.68475 99.8251L-3.28292 105.003Z" fill="#A7CD3A"/>
<path d="M11.739 2509.65C9.55229 2505.86 8.62074 2501.48 9.07789 2497.13C9.53505 2492.78 11.3574 2488.68 14.2839 2485.43C17.2104 2482.18 21.0906 2479.94 25.3686 2479.03C29.6465 2478.12 34.1025 2478.59 38.0979 2480.37L33.8861 2489.83C31.8884 2488.94 29.6604 2488.71 27.5215 2489.16C25.3825 2489.62 23.4424 2490.74 21.9791 2492.36C20.5159 2493.99 19.6047 2496.03 19.3761 2498.21C19.1476 2500.38 19.6133 2502.57 20.7067 2504.47L11.739 2509.65Z" fill="#A7CD3A"/>
<g filter="url(#filter23_f_159_85)">
<mask id="path-33-inside-4_159_85" fill="white">
<path d="M82.6533 597.475C79.5612 602.831 75.0676 607.242 69.6558 610.235C64.244 613.227 58.1188 614.688 51.9388 614.46C45.7589 614.232 39.7581 612.323 34.5818 608.939C29.4055 605.555 25.2496 600.824 22.5611 595.255C19.8725 589.686 18.7531 583.489 19.3231 577.332C19.8931 571.174 22.131 565.288 25.7961 560.307C29.4612 555.326 34.4149 551.438 40.1243 549.062C45.8338 546.686 52.083 545.911 58.1998 546.821L55.6971 563.644C52.6387 563.189 49.5141 563.576 46.6594 564.764C43.8047 565.953 41.3278 567.896 39.4953 570.387C37.6627 572.877 36.5438 575.82 36.2588 578.899C35.9738 581.978 36.5335 585.077 37.8778 587.861C39.222 590.646 41.3 593.011 43.8881 594.703C46.4762 596.395 49.4766 597.349 52.5666 597.463C55.6566 597.578 58.7192 596.847 61.4251 595.351C64.131 593.854 66.3778 591.649 67.9239 588.971L82.6533 597.475Z"/>
</mask>
<path d="M82.6533 597.475C79.5612 602.831 75.0676 607.242 69.6558 610.235C64.244 613.227 58.1188 614.688 51.9388 614.46C45.7589 614.232 39.7581 612.323 34.5818 608.939C29.4055 605.555 25.2496 600.824 22.5611 595.255C19.8725 589.686 18.7531 583.489 19.3231 577.332C19.8931 571.174 22.131 565.288 25.7961 560.307C29.4612 555.326 34.4149 551.438 40.1243 549.062C45.8338 546.686 52.083 545.911 58.1998 546.821L55.6971 563.644C52.6387 563.189 49.5141 563.576 46.6594 564.764C43.8047 565.953 41.3278 567.896 39.4953 570.387C37.6627 572.877 36.5438 575.82 36.2588 578.899C35.9738 581.978 36.5335 585.077 37.8778 587.861C39.222 590.646 41.3 593.011 43.8881 594.703C46.4762 596.395 49.4766 597.349 52.5666 597.463C55.6566 597.578 58.7192 596.847 61.4251 595.351C64.131 593.854 66.3778 591.649 67.9239 588.971L82.6533 597.475Z" stroke="#ED6010" stroke-width="5.35568" mask="url(#path-33-inside-4_159_85)"/>
</g>
<line x1="6.70821" y1="582.938" x2="27.5104" y2="546.907" stroke="#4A3978" stroke-width="0.66946"/>
<line x1="-0.448571" y1="554.585" x2="35.5819" y2="575.388" stroke="#4A3978" stroke-width="0.66946"/>
<g filter="url(#filter24_f_159_85)">
<mask id="path-36-inside-5_159_85" fill="white">
<path d="M406.653 1773.48C403.561 1778.83 399.068 1783.24 393.656 1786.23C388.244 1789.23 382.119 1790.69 375.939 1790.46C369.759 1790.23 363.758 1788.32 358.582 1784.94C353.406 1781.56 349.25 1776.82 346.561 1771.26C343.873 1765.69 342.753 1759.49 343.323 1753.33C343.893 1747.17 346.131 1741.29 349.796 1736.31C353.461 1731.33 358.415 1727.44 364.124 1725.06C369.834 1722.69 376.083 1721.91 382.2 1722.82L379.697 1739.64C376.639 1739.19 373.514 1739.58 370.659 1740.76C367.805 1741.95 365.328 1743.9 363.495 1746.39C361.663 1748.88 360.544 1751.82 360.259 1754.9C359.974 1757.98 360.533 1761.08 361.878 1763.86C363.222 1766.65 365.3 1769.01 367.888 1770.7C370.476 1772.39 373.477 1773.35 376.567 1773.46C379.657 1773.58 382.719 1772.85 385.425 1771.35C388.131 1769.85 390.378 1767.65 391.924 1764.97L406.653 1773.48Z"/>
</mask>
<path d="M406.653 1773.48C403.561 1778.83 399.068 1783.24 393.656 1786.23C388.244 1789.23 382.119 1790.69 375.939 1790.46C369.759 1790.23 363.758 1788.32 358.582 1784.94C353.406 1781.56 349.25 1776.82 346.561 1771.26C343.873 1765.69 342.753 1759.49 343.323 1753.33C343.893 1747.17 346.131 1741.29 349.796 1736.31C353.461 1731.33 358.415 1727.44 364.124 1725.06C369.834 1722.69 376.083 1721.91 382.2 1722.82L379.697 1739.64C376.639 1739.19 373.514 1739.58 370.659 1740.76C367.805 1741.95 365.328 1743.9 363.495 1746.39C361.663 1748.88 360.544 1751.82 360.259 1754.9C359.974 1757.98 360.533 1761.08 361.878 1763.86C363.222 1766.65 365.3 1769.01 367.888 1770.7C370.476 1772.39 373.477 1773.35 376.567 1773.46C379.657 1773.58 382.719 1772.85 385.425 1771.35C388.131 1769.85 390.378 1767.65 391.924 1764.97L406.653 1773.48Z" stroke="#ED6010" stroke-width="5.35568" mask="url(#path-36-inside-5_159_85)"/>
</g>
<line x1="330.708" y1="1758.94" x2="351.51" y2="1722.91" stroke="#4A3978" stroke-width="0.66946"/>
<line x1="323.551" y1="1730.59" x2="359.582" y2="1751.39" stroke="#4A3978" stroke-width="0.66946"/>
<line x1="21.2527" y1="1086.51" x2="32.6138" y2="1066.83" stroke="#4A3978" stroke-width="0.66946"/>
<line x1="17.5514" y1="1070.97" x2="37.2294" y2="1082.33" stroke="#4A3978" stroke-width="0.66946"/>
<line x1="367.566" y1="1074.4" x2="389.855" y2="1035.79" stroke="#ED6010" stroke-width="0.66946"/>
<line x1="359.865" y1="1044.03" x2="398.47" y2="1066.32" stroke="#ED6010" stroke-width="0.66946"/>
<path d="M41.8665 957.257C41.8665 961.817 38.1199 965.513 33.4982 965.513C28.8766 965.513 25.13 961.817 25.13 957.257C25.13 952.697 28.8766 949 33.4982 949C38.1199 949 41.8665 952.697 41.8665 957.257ZM29.3141 957.257C29.3141 959.537 31.1874 961.385 33.4982 961.385C35.8091 961.385 37.6824 959.537 37.6824 957.257C37.6824 954.977 35.8091 953.128 33.4982 953.128C31.1874 953.128 29.3141 954.977 29.3141 957.257Z" fill="#A7CD3A"/>
<g filter="url(#filter25_f_159_85)">
<path d="M415.039 1103.13C415.039 1107.69 411.293 1111.38 406.671 1111.38C402.05 1111.38 398.303 1107.69 398.303 1103.13C398.303 1098.57 402.05 1094.87 406.671 1094.87C411.293 1094.87 415.039 1098.57 415.039 1103.13ZM402.487 1103.13C402.487 1105.41 404.36 1107.26 406.671 1107.26C408.982 1107.26 410.855 1105.41 410.855 1103.13C410.855 1100.85 408.982 1099 406.671 1099C404.36 1099 402.487 1100.85 402.487 1103.13Z" fill="#005CBA"/>
</g>
<line x1="6.25247" y1="2966.44" x2="28.5414" y2="2927.83" stroke="#ED6010" stroke-width="0.66946"/>
<line x1="-1.4486" y1="2936.07" x2="37.1569" y2="2958.36" stroke="#ED6010" stroke-width="0.66946"/>
<g filter="url(#filter26_f_159_85)">
<path d="M38.1206 2981.26C38.1206 2985.82 34.374 2989.51 29.7523 2989.51C25.1307 2989.51 21.3841 2985.82 21.3841 2981.26C21.3841 2976.7 25.1307 2973 29.7523 2973C34.374 2973 38.1206 2976.7 38.1206 2981.26ZM25.5682 2981.26C25.5682 2983.54 27.4415 2985.39 29.7523 2985.39C32.0631 2985.39 33.9364 2983.54 33.9364 2981.26C33.9364 2978.98 32.0631 2977.13 29.7523 2977.13C27.4415 2977.13 25.5682 2978.98 25.5682 2981.26Z" fill="#005CBA"/>
</g>
<g filter="url(#filter27_f_159_85)">
<path d="M398.121 3068.26C398.121 3072.82 394.374 3076.51 389.752 3076.51C385.131 3076.51 381.384 3072.82 381.384 3068.26C381.384 3063.7 385.131 3060 389.752 3060C394.374 3060 398.121 3063.7 398.121 3068.26ZM385.568 3068.26C385.568 3070.54 387.442 3072.39 389.752 3072.39C392.063 3072.39 393.936 3070.54 393.936 3068.26C393.936 3065.98 392.063 3064.13 389.752 3064.13C387.442 3064.13 385.568 3065.98 385.568 3068.26Z" fill="#4A3978"/>
</g>
<line x1="12.2525" y1="2082.44" x2="34.5414" y2="2043.83" stroke="#ED6010" stroke-width="0.66946"/>
<line x1="4.5514" y1="2052.07" x2="43.1569" y2="2074.36" stroke="#ED6010" stroke-width="0.66946"/>
<g filter="url(#filter28_f_159_85)">
<path d="M59.7261 2111.17C59.7261 2115.73 55.9795 2119.43 51.3579 2119.43C46.7362 2119.43 42.9896 2115.73 42.9896 2111.17C42.9896 2106.61 46.7362 2102.91 51.3579 2102.91C55.9795 2102.91 59.7261 2106.61 59.7261 2111.17ZM47.1737 2111.17C47.1737 2113.45 49.047 2115.3 51.3579 2115.3C53.6687 2115.3 55.542 2113.45 55.542 2111.17C55.542 2108.89 53.6687 2107.04 51.3579 2107.04C49.047 2107.04 47.1737 2108.89 47.1737 2111.17Z" fill="#005CBA"/>
</g>
<mask id="path-52-inside-6_159_85" fill="white">
<path d="M60.7668 1545.55C64.1351 1542.07 66.7624 1537.94 68.4899 1533.42C70.2173 1528.89 71.0089 1524.06 70.8168 1519.22C70.6247 1514.38 69.4529 1509.63 67.3723 1505.26C65.2917 1500.89 62.3455 1496.98 58.7119 1493.78C55.0783 1490.57 50.8327 1488.14 46.2321 1486.63C41.6315 1485.11 36.7714 1484.54 31.9456 1484.96C27.1199 1485.38 22.429 1486.77 18.1564 1489.05C13.8839 1491.33 10.1185 1494.46 7.08815 1498.24L21.0585 1509.44C22.5737 1507.55 24.4564 1505.99 26.5926 1504.85C28.7289 1503.71 31.0744 1503.01 33.4873 1502.8C35.9001 1502.59 38.3302 1502.88 40.6305 1503.64C42.9308 1504.39 45.0536 1505.61 46.8704 1507.21C48.6872 1508.81 50.1603 1510.77 51.2006 1512.95C52.2409 1515.14 52.8268 1517.51 52.9228 1519.93C53.0189 1522.35 52.6231 1524.77 51.7594 1527.03C50.8957 1529.29 49.582 1531.36 47.8978 1533.1L60.7668 1545.55Z"/>
</mask>
<path d="M60.7668 1545.55C64.1351 1542.07 66.7624 1537.94 68.4899 1533.42C70.2173 1528.89 71.0089 1524.06 70.8168 1519.22C70.6247 1514.38 69.4529 1509.63 67.3723 1505.26C65.2917 1500.89 62.3455 1496.98 58.7119 1493.78C55.0783 1490.57 50.8327 1488.14 46.2321 1486.63C41.6315 1485.11 36.7714 1484.54 31.9456 1484.96C27.1199 1485.38 22.429 1486.77 18.1564 1489.05C13.8839 1491.33 10.1185 1494.46 7.08815 1498.24L21.0585 1509.44C22.5737 1507.55 24.4564 1505.99 26.5926 1504.85C28.7289 1503.71 31.0744 1503.01 33.4873 1502.8C35.9001 1502.59 38.3302 1502.88 40.6305 1503.64C42.9308 1504.39 45.0536 1505.61 46.8704 1507.21C48.6872 1508.81 50.1603 1510.77 51.2006 1512.95C52.2409 1515.14 52.8268 1517.51 52.9228 1519.93C53.0189 1522.35 52.6231 1524.77 51.7594 1527.03C50.8957 1529.29 49.582 1531.36 47.8978 1533.1L60.7668 1545.55Z" stroke="#ED6010" stroke-width="4.46306" mask="url(#path-52-inside-6_159_85)"/>
<mask id="path-53-inside-7_159_85" fill="white">
<path d="M401.767 3146.55C405.135 3143.07 407.762 3138.94 409.49 3134.42C411.217 3129.89 412.009 3125.06 411.817 3120.22C411.625 3115.38 410.453 3110.63 408.372 3106.26C406.292 3101.89 403.345 3097.98 399.712 3094.78C396.078 3091.57 391.833 3089.14 387.232 3087.63C382.631 3086.11 377.771 3085.54 372.946 3085.96C368.12 3086.38 363.429 3087.77 359.156 3090.05C354.884 3092.33 351.119 3095.46 348.088 3099.24L362.059 3110.44C363.574 3108.55 365.456 3106.99 367.593 3105.85C369.729 3104.71 372.074 3104.01 374.487 3103.8C376.9 3103.59 379.33 3103.88 381.63 3104.64C383.931 3105.39 386.054 3106.61 387.87 3108.21C389.687 3109.81 391.16 3111.77 392.201 3113.95C393.241 3116.14 393.827 3118.51 393.923 3120.93C394.019 3123.35 393.623 3125.77 392.759 3128.03C391.896 3130.29 390.582 3132.36 388.898 3134.1L401.767 3146.55Z"/>
</mask>
<path d="M401.767 3146.55C405.135 3143.07 407.762 3138.94 409.49 3134.42C411.217 3129.89 412.009 3125.06 411.817 3120.22C411.625 3115.38 410.453 3110.63 408.372 3106.26C406.292 3101.89 403.345 3097.98 399.712 3094.78C396.078 3091.57 391.833 3089.14 387.232 3087.63C382.631 3086.11 377.771 3085.54 372.946 3085.96C368.12 3086.38 363.429 3087.77 359.156 3090.05C354.884 3092.33 351.119 3095.46 348.088 3099.24L362.059 3110.44C363.574 3108.55 365.456 3106.99 367.593 3105.85C369.729 3104.71 372.074 3104.01 374.487 3103.8C376.9 3103.59 379.33 3103.88 381.63 3104.64C383.931 3105.39 386.054 3106.61 387.87 3108.21C389.687 3109.81 391.16 3111.77 392.201 3113.95C393.241 3116.14 393.827 3118.51 393.923 3120.93C394.019 3123.35 393.623 3125.77 392.759 3128.03C391.896 3130.29 390.582 3132.36 388.898 3134.1L401.767 3146.55Z" stroke="#ED6010" stroke-width="4.46306" mask="url(#path-53-inside-7_159_85)"/>
<line x1="80.1614" y1="1514.5" x2="91.5225" y2="1494.82" stroke="#005CBA" stroke-width="0.66946"/>
<line x1="76.4602" y1="1498.95" x2="96.1382" y2="1510.32" stroke="#005CBA" stroke-width="0.66946"/>
<g filter="url(#filter29_f_159_85)">
<mask id="path-56-inside-8_159_85" fill="white">
<path d="M59.224 1061.32C58.145 1063.77 56.4197 1065.87 54.2337 1067.41C52.0476 1068.95 49.4835 1069.86 46.8172 1070.05C44.1509 1070.24 41.4831 1069.7 39.101 1068.49C36.7188 1067.28 34.7123 1065.44 33.2972 1063.17C31.8822 1060.9 31.1121 1058.29 31.0699 1055.62C31.0277 1052.95 31.7149 1050.31 33.0576 1048C34.4003 1045.69 36.3478 1043.79 38.6905 1042.5C41.0332 1041.21 43.6825 1040.59 46.3535 1040.7L46.0625 1048.04C44.727 1047.99 43.4024 1048.3 42.231 1048.94C41.0597 1049.59 40.0859 1050.54 39.4146 1051.69C38.7432 1052.85 38.3996 1054.17 38.4207 1055.5C38.4418 1056.84 38.8269 1058.15 39.5344 1059.28C40.2419 1060.41 41.2452 1061.33 42.4363 1061.94C43.6274 1062.55 44.9612 1062.82 46.2944 1062.72C47.6275 1062.63 48.9096 1062.17 50.0026 1061.4C51.0956 1060.63 51.9583 1059.58 52.4978 1058.35L59.224 1061.32Z"/>
</mask>
<path d="M59.224 1061.32C58.145 1063.77 56.4197 1065.87 54.2337 1067.41C52.0476 1068.95 49.4835 1069.86 46.8172 1070.05C44.1509 1070.24 41.4831 1069.7 39.101 1068.49C36.7188 1067.28 34.7123 1065.44 33.2972 1063.17C31.8822 1060.9 31.1121 1058.29 31.0699 1055.62C31.0277 1052.95 31.7149 1050.31 33.0576 1048C34.4003 1045.69 36.3478 1043.79 38.6905 1042.5C41.0332 1041.21 43.6825 1040.59 46.3535 1040.7L46.0625 1048.04C44.727 1047.99 43.4024 1048.3 42.231 1048.94C41.0597 1049.59 40.0859 1050.54 39.4146 1051.69C38.7432 1052.85 38.3996 1054.17 38.4207 1055.5C38.4418 1056.84 38.8269 1058.15 39.5344 1059.28C40.2419 1060.41 41.2452 1061.33 42.4363 1061.94C43.6274 1062.55 44.9612 1062.82 46.2944 1062.72C47.6275 1062.63 48.9096 1062.17 50.0026 1061.4C51.0956 1060.63 51.9583 1059.58 52.4978 1058.35L59.224 1061.32Z" stroke="#FFC500" stroke-width="5.35568" mask="url(#path-56-inside-8_159_85)"/>
</g>
<line y1="-0.33473" x2="22.7222" y2="-0.33473" transform="matrix(-0.5 -0.866025 -0.866025 0.5 419.001 2739.68)" stroke="#4A3978" stroke-width="0.66946"/>
<line y1="-0.33473" x2="22.7222" y2="-0.33473" transform="matrix(-0.866025 0.5 0.5 0.866025 423.159 2724.26)" stroke="#4A3978" stroke-width="0.66946"/>
<g filter="url(#filter30_f_159_85)">
<mask id="path-59-inside-9_159_85" fill="white">
<path d="M381.319 2714.32C382.398 2716.77 384.123 2718.87 386.309 2720.41C388.496 2721.95 391.06 2722.86 393.726 2723.05C396.392 2723.24 399.06 2722.7 401.442 2721.49C403.824 2720.28 405.831 2718.44 407.246 2716.17C408.661 2713.9 409.431 2711.29 409.473 2708.62C409.515 2705.95 408.828 2703.31 407.486 2701C406.143 2698.69 404.195 2696.79 401.853 2695.5C399.51 2694.21 396.861 2693.59 394.19 2693.7L394.481 2701.04C395.816 2700.99 397.141 2701.3 398.312 2701.94C399.483 2702.59 400.457 2703.54 401.129 2704.69C401.8 2705.85 402.144 2707.17 402.122 2708.5C402.101 2709.84 401.716 2711.15 401.009 2712.28C400.301 2713.41 399.298 2714.33 398.107 2714.94C396.916 2715.55 395.582 2715.82 394.249 2715.72C392.916 2715.63 391.634 2715.17 390.541 2714.4C389.448 2713.63 388.585 2712.58 388.045 2711.36L381.319 2714.32Z"/>
</mask>
<path d="M381.319 2714.32C382.398 2716.77 384.123 2718.87 386.309 2720.41C388.496 2721.95 391.06 2722.86 393.726 2723.05C396.392 2723.24 399.06 2722.7 401.442 2721.49C403.824 2720.28 405.831 2718.44 407.246 2716.17C408.661 2713.9 409.431 2711.29 409.473 2708.62C409.515 2705.95 408.828 2703.31 407.486 2701C406.143 2698.69 404.195 2696.79 401.853 2695.5C399.51 2694.21 396.861 2693.59 394.19 2693.7L394.481 2701.04C395.816 2700.99 397.141 2701.3 398.312 2701.94C399.483 2702.59 400.457 2703.54 401.129 2704.69C401.8 2705.85 402.144 2707.17 402.122 2708.5C402.101 2709.84 401.716 2711.15 401.009 2712.28C400.301 2713.41 399.298 2714.33 398.107 2714.94C396.916 2715.55 395.582 2715.82 394.249 2715.72C392.916 2715.63 391.634 2715.17 390.541 2714.4C389.448 2713.63 388.585 2712.58 388.045 2711.36L381.319 2714.32Z" stroke="#FFC500" stroke-width="5.35568" mask="url(#path-59-inside-9_159_85)"/>
</g>
<mask id="path-60-inside-10_159_85" fill="white">
<path d="M397.181 1395.63C397.181 1401.37 392.535 1406.01 386.804 1406.01C381.073 1406.01 376.427 1401.37 376.427 1395.63C376.427 1389.9 381.073 1385.26 386.804 1385.26C392.535 1385.26 397.181 1389.9 397.181 1395.63ZM381.616 1395.63C381.616 1398.5 383.939 1400.82 386.804 1400.82C389.67 1400.82 391.992 1398.5 391.992 1395.63C391.992 1392.77 389.67 1390.45 386.804 1390.45C383.939 1390.45 381.616 1392.77 381.616 1395.63Z"/>
</mask>
<path d="M397.181 1395.63C397.181 1401.37 392.535 1406.01 386.804 1406.01C381.073 1406.01 376.427 1401.37 376.427 1395.63C376.427 1389.9 381.073 1385.26 386.804 1385.26C392.535 1385.26 397.181 1389.9 397.181 1395.63ZM381.616 1395.63C381.616 1398.5 383.939 1400.82 386.804 1400.82C389.67 1400.82 391.992 1398.5 391.992 1395.63C391.992 1392.77 389.67 1390.45 386.804 1390.45C383.939 1390.45 381.616 1392.77 381.616 1395.63Z" stroke="#ED6010" stroke-width="3.12415" mask="url(#path-60-inside-10_159_85)"/>
<mask id="path-61-inside-11_159_85" fill="white">
<path d="M409.883 1420.5C403.65 1426.73 395.197 1430.23 386.383 1430.23C377.569 1430.23 369.116 1426.73 362.884 1420.5C356.651 1414.27 353.15 1405.81 353.15 1397C353.15 1388.18 356.651 1379.73 362.884 1373.5L374.633 1385.25C371.517 1388.37 369.766 1392.59 369.766 1397C369.766 1401.41 371.517 1405.63 374.633 1408.75C377.75 1411.87 381.976 1413.62 386.383 1413.62C390.79 1413.62 395.017 1411.87 398.133 1408.75L409.883 1420.5Z"/>
</mask>
<path d="M409.883 1420.5C403.65 1426.73 395.197 1430.23 386.383 1430.23C377.569 1430.23 369.116 1426.73 362.884 1420.5C356.651 1414.27 353.15 1405.81 353.15 1397C353.15 1388.18 356.651 1379.73 362.884 1373.5L374.633 1385.25C371.517 1388.37 369.766 1392.59 369.766 1397C369.766 1401.41 371.517 1405.63 374.633 1408.75C377.75 1411.87 381.976 1413.62 386.383 1413.62C390.79 1413.62 395.017 1411.87 398.133 1408.75L409.883 1420.5Z" stroke="#4A3978" stroke-width="4.46306" mask="url(#path-61-inside-11_159_85)"/>
<defs>
<filter id="filter0_f_159_85" x="-123.193" y="-5.08005" width="406.153" height="406.038" filterUnits="userSpaceOnUse" color-interpolation-filters="sRGB">
<feFlood flood-opacity="0" result="BackgroundImageFix"/>
<feBlend mode="normal" in="SourceGraphic" in2="BackgroundImageFix" result="shape"/>
<feGaussianBlur stdDeviation="55.7883" result="effect1_foregroundBlur_159_85"/>
</filter>
<filter id="filter1_f_159_85" x="180.123" y="-107.783" width="421.983" height="422.949" filterUnits="userSpaceOnUse" color-interpolation-filters="sRGB">
<feFlood flood-opacity="0" result="BackgroundImageFix"/>
<feBlend mode="normal" in="SourceGraphic" in2="BackgroundImageFix" result="shape"/>
<feGaussianBlur stdDeviation="55.7883" result="effect1_foregroundBlur_159_85"/>
</filter>
<filter id="filter2_f_159_85" x="-193.882" y="529.5" width="421.983" height="422.949" filterUnits="userSpaceOnUse" color-interpolation-filters="sRGB">
<feFlood flood-opacity="0" result="BackgroundImageFix"/>
<feBlend mode="normal" in="SourceGraphic" in2="BackgroundImageFix" result="shape"/>
<feGaussianBlur stdDeviation="55.7883" result="effect1_foregroundBlur_159_85"/>
</filter>
<filter id="filter3_f_159_85" x="-191.193" y="237.091" width="395.428" height="396.265" filterUnits="userSpaceOnUse" color-interpolation-filters="sRGB">
<feFlood flood-opacity="0" result="BackgroundImageFix"/>
<feBlend mode="normal" in="SourceGraphic" in2="BackgroundImageFix" result="shape"/>
<feGaussianBlur stdDeviation="55.7883" result="effect1_foregroundBlur_159_85"/>
</filter>
<filter id="filter4_f_159_85" x="252.424" y="1054.66" width="384.493" height="385.277" filterUnits="userSpaceOnUse" color-interpolation-filters="sRGB">
<feFlood flood-opacity="0" result="BackgroundImageFix"/>
<feBlend mode="normal" in="SourceGraphic" in2="BackgroundImageFix" result="shape"/>
<feGaussianBlur stdDeviation="55.7883" result="effect1_foregroundBlur_159_85"/>
</filter>
<filter id="filter5_f_159_85" x="-217.759" y="1086.06" width="395.428" height="396.265" filterUnits="userSpaceOnUse" color-interpolation-filters="sRGB">
<feFlood flood-opacity="0" result="BackgroundImageFix"/>
<feBlend mode="normal" in="SourceGraphic" in2="BackgroundImageFix" result="shape"/>
<feGaussianBlur stdDeviation="55.7883" result="effect1_foregroundBlur_159_85"/>
</filter>
<filter id="filter6_f_159_85" x="201.769" y="608.207" width="395.428" height="396.265" filterUnits="userSpaceOnUse" color-interpolation-filters="sRGB">
<feFlood flood-opacity="0" result="BackgroundImageFix"/>
<feBlend mode="normal" in="SourceGraphic" in2="BackgroundImageFix" result="shape"/>
<feGaussianBlur stdDeviation="55.7883" result="effect1_foregroundBlur_159_85"/>
</filter>
<filter id="filter7_f_159_85" x="204.67" y="174.532" width="375.567" height="376.307" filterUnits="userSpaceOnUse" color-interpolation-filters="sRGB">
<feFlood flood-opacity="0" result="BackgroundImageFix"/>
<feBlend mode="normal" in="SourceGraphic" in2="BackgroundImageFix" result="shape"/>
<feGaussianBlur stdDeviation="55.7883" result="effect1_foregroundBlur_159_85"/>
</filter>
<filter id="filter8_f_159_85" x="-173.193" y="-62.357" width="376.153" height="376.897" filterUnits="userSpaceOnUse" color-interpolation-filters="sRGB">
<feFlood flood-opacity="0" result="BackgroundImageFix"/>
<feBlend mode="normal" in="SourceGraphic" in2="BackgroundImageFix" result="shape"/>
<feGaussianBlur stdDeviation="55.7883" result="effect1_foregroundBlur_159_85"/>
</filter>
<filter id="filter9_f_159_85" x="277.641" y="864.511" width="324.465" height="324.957" filterUnits="userSpaceOnUse" color-interpolation-filters="sRGB">
<feFlood flood-opacity="0" result="BackgroundImageFix"/>
<feBlend mode="normal" in="SourceGraphic" in2="BackgroundImageFix" result="shape"/>
<feGaussianBlur stdDeviation="55.7883" result="effect1_foregroundBlur_159_85"/>
</filter>
<filter id="filter10_f_159_85" x="-170.897" y="653.728" width="358.607" height="359.265" filterUnits="userSpaceOnUse" color-interpolation-filters="sRGB">
<feFlood flood-opacity="0" result="BackgroundImageFix"/>
<feBlend mode="normal" in="SourceGraphic" in2="BackgroundImageFix" result="shape"/>
<feGaussianBlur stdDeviation="55.7883" result="effect1_foregroundBlur_159_85"/>
</filter>
<filter id="filter11_f_159_85" x="142.764" y="1573.76" width="406.153" height="406.038" filterUnits="userSpaceOnUse" color-interpolation-filters="sRGB">
<feFlood flood-opacity="0" result="BackgroundImageFix"/>
<feBlend mode="normal" in="SourceGraphic" in2="BackgroundImageFix" result="shape"/>
<feGaussianBlur stdDeviation="55.7883" result="effect1_foregroundBlur_159_85"/>
</filter>
<filter id="filter12_f_159_85" x="-214.804" y="1432.63" width="498.83" height="499.796" filterUnits="userSpaceOnUse" color-interpolation-filters="sRGB">
<feFlood flood-opacity="0" result="BackgroundImageFix"/>
<feBlend mode="normal" in="SourceGraphic" in2="BackgroundImageFix" result="shape"/>
<feGaussianBlur stdDeviation="75" result="effect1_foregroundBlur_159_85"/>
</filter>
<filter id="filter13_f_159_85" x="197.624" y="2108.34" width="421.983" height="422.949" filterUnits="userSpaceOnUse" color-interpolation-filters="sRGB">
<feFlood flood-opacity="0" result="BackgroundImageFix"/>
<feBlend mode="normal" in="SourceGraphic" in2="BackgroundImageFix" result="shape"/>
<feGaussianBlur stdDeviation="55.7883" result="effect1_foregroundBlur_159_85"/>
</filter>
<filter id="filter14_f_159_85" x="221.49" y="1815.93" width="395.428" height="396.265" filterUnits="userSpaceOnUse" color-interpolation-filters="sRGB">
<feFlood flood-opacity="0" result="BackgroundImageFix"/>
<feBlend mode="normal" in="SourceGraphic" in2="BackgroundImageFix" result="shape"/>
<feGaussianBlur stdDeviation="55.7883" result="effect1_foregroundBlur_159_85"/>
</filter>
<filter id="filter15_f_159_85" x="-211.193" y="2633.5" width="384.493" height="385.277" filterUnits="userSpaceOnUse" color-interpolation-filters="sRGB">
<feFlood flood-opacity="0" result="BackgroundImageFix"/>
<feBlend mode="normal" in="SourceGraphic" in2="BackgroundImageFix" result="shape"/>
<feGaussianBlur stdDeviation="55.7883" result="effect1_foregroundBlur_159_85"/>
</filter>
<filter id="filter16_f_159_85" x="248.057" y="2664.9" width="395.428" height="396.265" filterUnits="userSpaceOnUse" color-interpolation-filters="sRGB">
<feFlood flood-opacity="0" result="BackgroundImageFix"/>
<feBlend mode="normal" in="SourceGraphic" in2="BackgroundImageFix" result="shape"/>
<feGaussianBlur stdDeviation="55.7883" result="effect1_foregroundBlur_159_85"/>
</filter>
<filter id="filter17_f_159_85" x="-160.193" y="1945.35" width="375.567" height="376.307" filterUnits="userSpaceOnUse" color-interpolation-filters="sRGB">
<feFlood flood-opacity="0" result="BackgroundImageFix"/>
<feBlend mode="normal" in="SourceGraphic" in2="BackgroundImageFix" result="shape"/>
<feGaussianBlur stdDeviation="55.7883" result="effect1_foregroundBlur_159_85"/>
</filter>
<filter id="filter18_f_159_85" x="222.764" y="1516.48" width="376.153" height="376.897" filterUnits="userSpaceOnUse" color-interpolation-filters="sRGB">
<feFlood flood-opacity="0" result="BackgroundImageFix"/>
<feBlend mode="normal" in="SourceGraphic" in2="BackgroundImageFix" result="shape"/>
<feGaussianBlur stdDeviation="55.7883" result="effect1_foregroundBlur_159_85"/>
</filter>
<filter id="filter19_f_159_85" x="171.123" y="2972.32" width="421.983" height="422.949" filterUnits="userSpaceOnUse" color-interpolation-filters="sRGB">
<feFlood flood-opacity="0" result="BackgroundImageFix"/>
<feBlend mode="normal" in="SourceGraphic" in2="BackgroundImageFix" result="shape"/>
<feGaussianBlur stdDeviation="55.7883" result="effect1_foregroundBlur_159_85"/>
</filter>
<filter id="filter20_f_159_85" x="-182.193" y="3017.74" width="376.153" height="376.897" filterUnits="userSpaceOnUse" color-interpolation-filters="sRGB">
<feFlood flood-opacity="0" result="BackgroundImageFix"/>
<feBlend mode="normal" in="SourceGraphic" in2="BackgroundImageFix" result="shape"/>
<feGaussianBlur stdDeviation="55.7883" result="effect1_foregroundBlur_159_85"/>
</filter>
<filter id="filter21_f_159_85" x="-176.381" y="2443.35" width="324.465" height="324.957" filterUnits="userSpaceOnUse" color-interpolation-filters="sRGB">
<feFlood flood-opacity="0" result="BackgroundImageFix"/>
<feBlend mode="normal" in="SourceGraphic" in2="BackgroundImageFix" result="shape"/>
<feGaussianBlur stdDeviation="55.7883" result="effect1_foregroundBlur_159_85"/>
</filter>
<filter id="filter22_f_159_85" x="238.015" y="2232.57" width="358.607" height="359.265" filterUnits="userSpaceOnUse" color-interpolation-filters="sRGB">
<feFlood flood-opacity="0" result="BackgroundImageFix"/>
<feBlend mode="normal" in="SourceGraphic" in2="BackgroundImageFix" result="shape"/>
<feGaussianBlur stdDeviation="55.7883" result="effect1_foregroundBlur_159_85"/>
</filter>
<filter id="filter23_f_159_85" x="17.393" y="544.666" width="67.0455" height="71.6028" filterUnits="userSpaceOnUse" color-interpolation-filters="sRGB">
<feFlood flood-opacity="0" result="BackgroundImageFix"/>
<feBlend mode="normal" in="SourceGraphic" in2="BackgroundImageFix" result="shape"/>
<feGaussianBlur stdDeviation="0.892613" result="effect1_foregroundBlur_159_85"/>
</filter>
<filter id="filter24_f_159_85" x="341.393" y="1720.67" width="67.0454" height="71.6027" filterUnits="userSpaceOnUse" color-interpolation-filters="sRGB">
<feFlood flood-opacity="0" result="BackgroundImageFix"/>
<feBlend mode="normal" in="SourceGraphic" in2="BackgroundImageFix" result="shape"/>
<feGaussianBlur stdDeviation="0.892613" result="effect1_foregroundBlur_159_85"/>
</filter>
<filter id="filter25_f_159_85" x="394.956" y="1091.52" width="23.4311" height="23.2079" filterUnits="userSpaceOnUse" color-interpolation-filters="sRGB">
<feFlood flood-opacity="0" result="BackgroundImageFix"/>
<feBlend mode="normal" in="SourceGraphic" in2="BackgroundImageFix" result="shape"/>
<feGaussianBlur stdDeviation="1.67365" result="effect1_foregroundBlur_159_85"/>
</filter>
<filter id="filter26_f_159_85" x="18.0368" y="2969.65" width="23.4311" height="23.208" filterUnits="userSpaceOnUse" color-interpolation-filters="sRGB">
<feFlood flood-opacity="0" result="BackgroundImageFix"/>
<feBlend mode="normal" in="SourceGraphic" in2="BackgroundImageFix" result="shape"/>
<feGaussianBlur stdDeviation="1.67365" result="effect1_foregroundBlur_159_85"/>
</filter>
<filter id="filter27_f_159_85" x="378.037" y="3056.65" width="23.4311" height="23.208" filterUnits="userSpaceOnUse" color-interpolation-filters="sRGB">
<feFlood flood-opacity="0" result="BackgroundImageFix"/>
<feBlend mode="normal" in="SourceGraphic" in2="BackgroundImageFix" result="shape"/>
<feGaussianBlur stdDeviation="1.67365" result="effect1_foregroundBlur_159_85"/>
</filter>
<filter id="filter28_f_159_85" x="39.6423" y="2099.57" width="23.4311" height="23.2079" filterUnits="userSpaceOnUse" color-interpolation-filters="sRGB">
<feFlood flood-opacity="0" result="BackgroundImageFix"/>
<feBlend mode="normal" in="SourceGraphic" in2="BackgroundImageFix" result="shape"/>
<feGaussianBlur stdDeviation="1.67365" result="effect1_foregroundBlur_159_85"/>
</filter>
<filter id="filter29_f_159_85" x="29.2828" y="1038.9" width="31.7264" height="32.9775" filterUnits="userSpaceOnUse" color-interpolation-filters="sRGB">
<feFlood flood-opacity="0" result="BackgroundImageFix"/>
<feBlend mode="normal" in="SourceGraphic" in2="BackgroundImageFix" result="shape"/>
<feGaussianBlur stdDeviation="0.892613" result="effect1_foregroundBlur_159_85"/>
</filter>
<filter id="filter30_f_159_85" x="379.534" y="2691.9" width="31.7264" height="32.9776" filterUnits="userSpaceOnUse" color-interpolation-filters="sRGB">
<feFlood flood-opacity="0" result="BackgroundImageFix"/>
<feBlend mode="normal" in="SourceGraphic" in2="BackgroundImageFix" result="shape"/>
<feGaussianBlur stdDeviation="0.892613" result="effect1_foregroundBlur_159_85"/>
</filter>
</defs>
</svg>
