<svg width="99" height="1075" viewBox="0 0 99 1075" fill="none" xmlns="http://www.w3.org/2000/svg">
<path d="M98.5176 128.781C98.5176 155.721 76.4637 177.561 49.2588 177.561C22.0539 177.561 0 155.721 0 128.781C0 101.84 22.0539 80 49.2588 80C76.4637 80 98.5176 101.84 98.5176 128.781ZM9.85176 128.781C9.85176 150.333 27.4949 167.805 49.2588 167.805C71.0227 167.805 88.6658 150.333 88.6658 128.781C88.6658 107.228 71.0227 89.7561 49.2588 89.7561C27.4949 89.7561 9.85176 107.228 9.85176 128.781Z" fill="#ED6010"/>
<path d="M98.5176 294.781C98.5176 321.721 76.4637 343.561 49.2588 343.561C22.0539 343.561 0 321.721 0 294.781C0 267.84 22.0539 246 49.2588 246C76.4637 246 98.5176 267.84 98.5176 294.781ZM9.85176 294.781C9.85176 316.333 27.4949 333.805 49.2588 333.805C71.0227 333.805 88.6658 316.333 88.6658 294.781C88.6658 273.228 71.0227 255.756 49.2588 255.756C27.4949 255.756 9.85176 273.228 9.85176 294.781Z" fill="#ED6010"/>
<path d="M98.5176 459.781C98.5176 486.721 76.4637 508.561 49.2588 508.561C22.0539 508.561 0 486.721 0 459.781C0 432.84 22.0539 411 49.2588 411C76.4637 411 98.5176 432.84 98.5176 459.781ZM9.85176 459.781C9.85176 481.333 27.4949 498.805 49.2588 498.805C71.0227 498.805 88.6658 481.333 88.6658 459.781C88.6658 438.228 71.0227 420.756 49.2588 420.756C27.4949 420.756 9.85176 438.228 9.85176 459.781Z" fill="#ED6010"/>
<path d="M98.5176 620.781C98.5176 647.721 76.4637 669.561 49.2588 669.561C22.0539 669.561 0 647.721 0 620.781C0 593.84 22.0539 572 49.2588 572C76.4637 572 98.5176 593.84 98.5176 620.781ZM9.85176 620.781C9.85176 642.333 27.4949 659.805 49.2588 659.805C71.0227 659.805 88.6658 642.333 88.6658 620.781C88.6658 599.228 71.0227 581.756 49.2588 581.756C27.4949 581.756 9.85176 599.228 9.85176 620.781Z" fill="#ED6010"/>
<path d="M98.5176 785.781C98.5176 812.721 76.4637 834.561 49.2588 834.561C22.0539 834.561 0 812.721 0 785.781C0 758.84 22.0539 737 49.2588 737C76.4637 737 98.5176 758.84 98.5176 785.781ZM9.85176 785.781C9.85176 807.333 27.4949 824.805 49.2588 824.805C71.0227 824.805 88.6658 807.333 88.6658 785.781C88.6658 764.228 71.0227 746.756 49.2588 746.756C27.4949 746.756 9.85176 764.228 9.85176 785.781Z" fill="#ED6010"/>
<path d="M98.5176 954.781C98.5176 981.721 76.4637 1003.56 49.2588 1003.56C22.0539 1003.56 0 981.721 0 954.781C0 927.84 22.0539 906 49.2588 906C76.4637 906 98.5176 927.84 98.5176 954.781ZM9.85176 954.781C9.85176 976.333 27.4949 993.805 49.2588 993.805C71.0227 993.805 88.6658 976.333 88.6658 954.781C88.6658 933.228 71.0227 915.756 49.2588 915.756C27.4949 915.756 9.85176 933.228 9.85176 954.781Z" fill="#ED6010"/>
<circle cx="49.2167" cy="17.2167" r="17.2167" fill="#ED6010"/>
<path fill-rule="evenodd" clip-rule="evenodd" d="M44.4343 19.1296L44.4343 80.3445H54.4343L54.4343 19.1296H44.4343ZM44.4344 167.384L44.4344 247.729L54.4344 247.729L54.4344 167.384H44.4344Z" fill="#ED6010"/>
<line x1="48.999" y1="420.345" x2="48.999" y2="340" stroke="#ED6010" stroke-width="10"/>
<line x1="48.999" y1="580.345" x2="48.999" y2="500" stroke="#ED6010" stroke-width="10"/>
<line x1="48.999" y1="740.345" x2="48.999" y2="660" stroke="#ED6010" stroke-width="10"/>
<circle cx="49.2167" cy="1057.51" r="17.2167" transform="rotate(-180 49.2167 1057.51)" fill="#ED6010"/>
<path fill-rule="evenodd" clip-rule="evenodd" d="M53.9991 1055.6L53.9991 994.384L43.9991 994.384L43.9991 1055.6L53.9991 1055.6ZM53.999 907.344L53.999 827L43.999 827L43.999 907.344L53.999 907.344Z" fill="#ED6010"/>
</svg>
