<svg width="325" height="425" viewBox="0 0 325 425" fill="none" xmlns="http://www.w3.org/2000/svg">
<g filter="url(#filter0_b_669_73)">
<rect x="10" width="300" height="424" rx="30" fill="white" fill-opacity="0.3"/>
<rect x="10" width="300" height="424" rx="30" fill="url(#paint0_linear_669_73)"/>
<rect x="11" y="1" width="298" height="422" rx="29" stroke="url(#paint1_linear_669_73)" stroke-width="2"/>
</g>
<path d="M181.818 149.486C190.873 149.486 198.127 142.323 198.127 133.45C198.127 124.577 190.873 117.414 181.818 117.414C172.764 117.414 165.455 124.577 165.455 133.45C165.455 142.323 172.764 149.486 181.818 149.486ZM138.182 149.486C147.236 149.486 154.491 142.323 154.491 133.45C154.491 124.577 147.236 117.414 138.182 117.414C129.127 117.414 121.818 124.577 121.818 133.45C121.818 142.323 129.127 149.486 138.182 149.486ZM138.182 160.176C125.473 160.176 100 166.43 100 178.884V192.247H176.364V178.884C176.364 166.43 150.891 160.176 138.182 160.176ZM181.818 160.176C180.236 160.176 178.436 160.283 176.527 160.443C182.855 164.933 187.273 170.973 187.273 178.884V192.247H220V178.884C220 166.43 194.527 160.176 181.818 160.176Z" fill="#645589"/>
<g opacity="0.85">
<mask id="path-4-inside-1_669_73" fill="white">
<path d="M260 170C260 225.228 215.228 270 160 270C104.772 270 60 225.228 60 170C60 114.772 104.772 70 160 70C215.228 70 260 114.772 260 170ZM75 170C75 216.944 113.056 255 160 255C206.944 255 245 216.944 245 170C245 123.056 206.944 85 160 85C113.056 85 75 123.056 75 170Z"/>
</mask>
<path d="M260 170C260 225.228 215.228 270 160 270C104.772 270 60 225.228 60 170C60 114.772 104.772 70 160 70C215.228 70 260 114.772 260 170ZM75 170C75 216.944 113.056 255 160 255C206.944 255 245 216.944 245 170C245 123.056 206.944 85 160 85C113.056 85 75 123.056 75 170Z" stroke="#4A3978" stroke-width="13.8182" mask="url(#path-4-inside-1_669_73)"/>
</g>
<path fill-rule="evenodd" clip-rule="evenodd" d="M10 284V395C10 411.569 23.4315 425 40 425H280C296.569 425 310 411.569 310 395V284C310 300.569 296.569 314 280 314H40C23.4315 314 10 300.569 10 284Z" fill="url(#paint2_linear_669_73)"/>
<path d="M105.101 352H111.005V343.684H114.425L120.833 352H127.853L120.725 343.18C124.397 342.028 126.449 339.184 126.449 335.332C126.449 330.256 122.885 326.8 117.377 326.8H105.101V352ZM110.969 338.932V331.84H116.693C119.213 331.84 120.617 333.136 120.617 335.404C120.617 337.672 119.213 338.932 116.693 338.932H110.969ZM138.768 352.432C141.9 352.432 144.744 351.388 146.76 349.516L143.808 346.348C142.584 347.32 140.784 347.86 139.056 347.86C136.464 347.86 134.772 346.6 134.448 344.8H147.516C148.56 338.248 144.888 333.82 138.264 333.82C132.54 333.82 128.688 337.6 128.688 343.144C128.688 348.868 132.54 352.432 138.768 352.432ZM134.484 341.56C134.7 339.472 136.176 338.284 138.444 338.284C140.748 338.284 142.188 339.508 142.332 341.56H134.484ZM159.537 362.224C165.513 362.224 169.401 359.272 169.401 354.736C169.401 352.18 168.033 350.164 165.621 349.084C167.925 347.644 169.257 345.34 169.257 342.676C169.257 340.732 168.681 339.184 167.457 337.78L169.833 335.008L165.693 332.02L163.605 334.612C162.381 334.036 161.013 333.748 159.573 333.748C153.849 333.748 149.817 337.456 149.817 342.676C149.817 348.148 153.669 351.676 159.609 351.676C162.165 351.676 163.569 352.72 163.569 354.52C163.569 356.284 161.949 357.472 159.537 357.472C156.873 357.472 155.361 356.14 155.469 353.764H150.033C149.529 358.804 153.381 362.224 159.537 362.224ZM155.397 342.676C155.397 340.156 157.053 338.5 159.573 338.5C162.093 338.5 163.749 340.156 163.749 342.676C163.749 345.196 162.093 346.888 159.573 346.888C157.089 346.888 155.397 345.196 155.397 342.676ZM172.938 352H178.59V334.216H172.938V352ZM172.47 329.392C172.47 331.192 173.838 332.452 175.782 332.452C177.726 332.452 179.094 331.192 179.094 329.392C179.094 327.592 177.726 326.296 175.782 326.296C173.838 326.296 172.47 327.592 172.47 329.392ZM189.765 352.468C194.949 352.468 198.045 350.236 198.045 346.6C198.045 343.108 195.237 341.236 190.233 340.84C188.469 340.66 187.785 340.3 187.785 339.58C187.785 338.68 188.721 338.284 190.521 338.284C192.357 338.284 193.977 338.68 195.309 339.436L197.505 335.656C195.741 334.504 193.113 333.748 190.269 333.748C185.373 333.748 182.277 336.016 182.277 339.544C182.277 342.82 185.157 344.944 189.657 345.196C191.709 345.34 192.465 345.772 192.465 346.6C192.465 347.428 191.637 347.86 190.125 347.86C187.893 347.86 185.445 347.248 183.717 346.204L181.557 350.092C183.717 351.568 186.489 352.468 189.765 352.468ZM209.091 352.36C210.783 352.36 212.295 352.072 213.807 351.316L212.475 347.068C211.899 347.356 211.107 347.572 210.423 347.572C209.199 347.572 208.407 346.924 208.407 345.448V338.716H212.835V334.216H208.407V329.176L202.791 329.788V334.216H199.767V338.716H202.791V345.448C202.791 350.56 205.455 352.36 209.091 352.36ZM65.8844 407H71.7524V391.196L79.2404 400.304H80.3924L87.8084 391.232V407H93.6764V381.8H88.3844L79.7804 392.528L71.1764 381.8H65.8844V407ZM105.596 407.36C108.008 407.36 110.024 406.496 111.5 404.876L111.86 407H116.756V389.216H111.86L111.5 391.304C110.06 389.72 108.008 388.856 105.596 388.856C100.592 388.856 97.1004 392.636 97.1004 398.108C97.1004 403.58 100.592 407.36 105.596 407.36ZM102.716 398.108C102.716 395.444 104.444 393.608 106.928 393.608C109.448 393.608 111.176 395.444 111.176 398.108C111.176 400.772 109.448 402.608 106.928 402.608C104.444 402.608 102.716 400.772 102.716 398.108ZM120.995 407H126.647V389.216H120.995V407ZM120.527 384.392C120.527 386.192 121.895 387.452 123.839 387.452C125.783 387.452 127.151 386.192 127.151 384.392C127.151 382.592 125.783 381.296 123.839 381.296C121.895 381.296 120.527 382.592 120.527 384.392ZM130.909 407H136.561V397.64C136.561 395.264 138.037 393.608 140.233 393.608C142.249 393.608 143.473 394.976 143.473 397.28V407H149.125V396.956C149.125 391.844 146.281 388.82 141.889 388.82C139.513 388.82 137.533 389.72 136.165 391.304L135.805 389.216H130.909V407ZM162.213 407H181.833V402.032H167.937V396.596H180.717V391.844H167.937V386.732H181.437V381.8H162.213V407ZM190.628 407H196.388L203.912 389.216H197.9L195.74 394.58L193.544 401.024L191.348 394.58L189.224 389.216H183.068L190.628 407ZM214.512 407.432C217.644 407.432 220.488 406.388 222.504 404.516L219.552 401.348C218.328 402.32 216.528 402.86 214.8 402.86C212.208 402.86 210.516 401.6 210.192 399.8H223.26C224.304 393.248 220.632 388.82 214.008 388.82C208.284 388.82 204.432 392.6 204.432 398.144C204.432 403.868 208.284 407.432 214.512 407.432ZM210.228 396.56C210.444 394.472 211.92 393.284 214.188 393.284C216.492 393.284 217.932 394.508 218.076 396.56H210.228ZM226.569 407H232.221V397.64C232.221 395.264 233.697 393.608 235.893 393.608C237.909 393.608 239.133 394.976 239.133 397.28V407H244.785V396.956C244.785 391.844 241.941 388.82 237.549 388.82C235.173 388.82 233.193 389.72 231.825 391.304L231.465 389.216H226.569V407ZM256.746 407.36C258.438 407.36 259.95 407.072 261.462 406.316L260.13 402.068C259.554 402.356 258.762 402.572 258.078 402.572C256.854 402.572 256.062 401.924 256.062 400.448V393.716H260.49V389.216H256.062V384.176L250.446 384.788V389.216H247.422V393.716H250.446V400.448C250.446 405.56 253.11 407.36 256.746 407.36Z" fill="#F3F3F3"/>
<circle cx="43.5" cy="30.5" r="10.5" fill="#EE5F11"/>
<circle cx="73.5" cy="30.5" r="10.5" fill="#FFC504"/>
<circle cx="103.5" cy="30.5" r="10.5" fill="#A7CC3C"/>
<defs>
<filter id="filter0_b_669_73" x="6" y="-4" width="308" height="432" filterUnits="userSpaceOnUse" color-interpolation-filters="sRGB">
<feFlood flood-opacity="0" result="BackgroundImageFix"/>
<feGaussianBlur in="BackgroundImage" stdDeviation="2"/>
<feComposite in2="SourceAlpha" operator="in" result="effect1_backgroundBlur_669_73"/>
<feBlend mode="normal" in="SourceGraphic" in2="effect1_backgroundBlur_669_73" result="shape"/>
</filter>
<linearGradient id="paint0_linear_669_73" x1="160" y1="0" x2="160" y2="424" gradientUnits="userSpaceOnUse">
<stop stop-color="white" stop-opacity="0"/>
<stop offset="0.892361" stop-color="#F3EBB7"/>
</linearGradient>
<linearGradient id="paint1_linear_669_73" x1="-53.2" y1="-30.5468" x2="119.486" y2="438.585" gradientUnits="userSpaceOnUse">
<stop stop-color="white"/>
<stop offset="1" stop-color="white" stop-opacity="0"/>
</linearGradient>
<linearGradient id="paint2_linear_669_73" x1="282.5" y1="515" x2="9.99997" y2="297" gradientUnits="userSpaceOnUse">
<stop stop-color="#FBCF2D"/>
<stop offset="1" stop-color="#EFE492"/>
</linearGradient>
</defs>
</svg>
